# Rhino

mtllib 1234.mtl
usemtl 新材质 002
v -482.91384887695313 741.58819580078125 145.32807922363281
v -680.74176025390625 741.58819580078125 284.77981567382813
v -714.93609619140625 741.58819580078125 -605.328857421875
v -516.83868408203125 741.58819580078125 324.34616088867188
v -714.93609619140625 741.58819580078125 -605.328857421875
v -913.03375244140625 741.58819580078125 324.34616088867188
v -946.95855712890625 741.58819580078125 145.32807922363281
v -749.13067626953125 741.58819580078125 284.77981567382813
v -714.93609619140625 741.58819580078125 -605.328857421875
v -749.13067626953125 741.58819580078125 284.77981567382813
v -714.93609619140625 608.28851318359375 284.77981567382813
v -714.93609619140625 741.58819580078125 -605.328857421875
v -714.93609619140625 608.28851318359375 284.77981567382813
v -680.74176025390625 741.58819580078125 284.77981567382813
vt -2.9101202487945557 -0.14139474928379059
vt -2.4764523506164551 -0.36684757471084595
vt -2.4014930725097656 1.0721989870071411
vt -2.835752010345459 -0.43081483244895935
vt -2.4014930725097656 1.0721989870071411
vt -1.9672340154647827 -0.43081483244895935
vt -1.8928656578063965 -0.14139474928379059
vt -2.3265335559844971 -0.36684757471084595
vt 1.5449455976486206 0.88549929857254028
vt -0.40774327516555786 0.88549929857254028
vt -0.40486574172973633 0.66302508115768433
vt -1.3605694770812988 1.7644035816192627
vt 0.58924186229705811 1.5419293642044067
vt 0.59211939573287964 1.7644035816192627
vn 0 -1 0
vn 0 -1 0
vn 0 -1 0
vn 0 -1 0
vn 0 -1 0
vn 0 -1 0
vn 0 -1 0
vn 0 -1 0
vn 0.96796756982803345 0.24830634891986847 0.037185516208410263
vn 0.96796756982803345 0.24830634891986847 0.037185516208410263
vn 0.96796756982803345 0.24830634891986847 0.037185516208410263
vn -0.96796739101409912 0.24830693006515503 0.037185601890087128
vn -0.96796739101409912 0.24830693006515503 0.037185601890087128
vn -0.96796739101409912 0.24830693006515503 0.037185601890087128
f 1/1/1 2/2/2 3/3/3
f 2/2/2 1/1/1 4/4/4
f 5/5/5 6/6/6 7/7/7
f 6/6/6 5/5/5 8/8/8
f 9/9/9 10/10/10 11/11/11
f 12/12/12 13/13/13 14/14/14
